<svg id="logo" xmlns="http://www.w3.org/2000/svg" viewBox="0 0 903.17 952.5"><defs><style>.cls-1{fill:#3d386e;}.cls-2{fill:#e85a50;}.cls-3{fill:#ee565c;}</style></defs><polygon class="cls-1" points="13.69 385.4 0 368.48 455.27 0 903.17 363.79 889.45 380.69 455.25 28.02 13.69 385.4"/><path class="cls-1" d="M1081.2,811.56h-517c-17.28,0-32.09-9.6-42.83-27.75a87.79,87.79,0,0,1-11.93-44.75V432.11h21.77V739.06a66,66,0,0,0,8.89,33.66c6.7,11.33,14.81,17.08,24.1,17.08h517c9.29,0,17.4-5.75,24.11-17.08a66,66,0,0,0,8.89-33.66V432.11H1136V739.06A87.79,87.79,0,0,1,1124,783.81C1113.29,802,1098.48,811.56,1081.2,811.56Z" transform="translate(-367.45 -18.81)"/><path class="cls-2" d="M641.64,340.83l-9.88-41.57s3.68-18.09,19.35-5.49l9.9,41.72,9.36,41.92s-3.94,18-19.41,5.18Z" transform="translate(-367.45 -18.81)"/><path class="cls-2" d="M655.16,303.94s-.65-18.46,17.52-9.89l19.41,38.27L711,370.88s.4,18.46-17.67,9.58l-18.82-38.41Z" transform="translate(-367.45 -18.81)"/><path class="cls-2" d="M661.08,506.76l-9.36-41.85c-15.52-12.8-19.44,5.24-19.44,5.24l9.34,41.68,8.77,41.88c15.3,13.08,19.48-4.92,19.48-4.92Zm31.67-.94-13.37-40.76c-16.67-11.25-18.82,7.09-18.82,7.09l13.32,40.6,12.75,40.83c16.5,11.53,18.91-6.77,18.91-6.77ZM749,540l-22.63-36.47-23.12-36.15c-19-6.71-16.45,11.58-16.45,11.58l23,36,22.55,36.37C751.21,558.32,749,540,749,540Zm0,0-22.63-36.47-23.12-36.15c-19-6.71-16.45,11.58-16.45,11.58l23,36,22.55,36.37C751.21,558.32,749,540,749,540Zm-56.21-34.17-13.37-40.76c-16.67-11.25-18.82,7.09-18.82,7.09l13.32,40.6,12.75,40.83c16.5,11.53,18.91-6.77,18.91-6.77Zm-31.67.94-9.36-41.85c-15.52-12.8-19.44,5.24-19.44,5.24l9.34,41.68,8.77,41.88c15.3,13.08,19.48-4.92,19.48-4.92Zm0,0-9.36-41.85c-15.52-12.8-19.44,5.24-19.44,5.24l9.34,41.68,8.77,41.88c15.3,13.08,19.48-4.92,19.48-4.92Zm31.67-.94-13.37-40.76c-16.67-11.25-18.82,7.09-18.82,7.09l13.32,40.6,12.75,40.83c16.5,11.53,18.91-6.77,18.91-6.77ZM749,540l-22.63-36.47-23.12-36.15c-19-6.71-16.45,11.58-16.45,11.58l23,36,22.55,36.37C751.21,558.32,749,540,749,540Zm0,0-22.63-36.47-23.12-36.15c-19-6.71-16.45,11.58-16.45,11.58l23,36,22.55,36.37C751.21,558.32,749,540,749,540Zm-69.58-74.93c-16.67-11.25-18.82,7.09-18.82,7.09l13.32,40.6,12.75,40.83c16.5,11.53,18.91-6.77,18.91-6.77l-12.79-41Zm-27.66-.15c-15.52-12.8-19.44,5.24-19.44,5.24l9.34,41.68,8.77,41.88c15.3,13.08,19.48-4.92,19.48-4.92l-8.79-42Zm-44.31-229v509.6h33.84v35.74h26.34V745.52H974.16v35.74h26.34V745.52h33.84V235.92ZM788,681.57H771.08V624.22H788Zm21.63-120.66H627.21V415.17H809.62Zm0-165.15H627.21V250H809.62Zm63,285.81H855.7V624.22h16.91Zm63-122.23h-20.7V453.11h20.7Zm81.79,0H961V437.11H893.31V559.34H838.77V250h178.64ZM709.79,514.92l22.55,36.37C751.21,558.32,749,540,749,540l-22.63-36.47-23.12-36.15c-19-6.71-16.45,11.58-16.45,11.58Zm-23.16,38.66c16.5,11.53,18.91-6.77,18.91-6.77l-12.79-41-13.37-40.76c-16.67-11.25-18.82,7.09-18.82,7.09l13.32,40.6Zm-36.24.13c15.3,13.08,19.48-4.92,19.48-4.92l-8.79-42-9.36-41.85c-15.52-12.8-19.44,5.24-19.44,5.24l9.34,41.68Zm10.69-47-9.36-41.85c-15.52-12.8-19.44,5.24-19.44,5.24l9.34,41.68,8.77,41.88c15.3,13.08,19.48-4.92,19.48-4.92Zm31.67-.94-13.37-40.76c-16.67-11.25-18.82,7.09-18.82,7.09l13.32,40.6,12.75,40.83c16.5,11.53,18.91-6.77,18.91-6.77ZM749,540l-22.63-36.47-23.12-36.15c-19-6.71-16.45,11.58-16.45,11.58l23,36,22.55,36.37C751.21,558.32,749,540,749,540Zm0,0-22.63-36.47-23.12-36.15c-19-6.71-16.45,11.58-16.45,11.58l23,36,22.55,36.37C751.21,558.32,749,540,749,540Zm-56.21-34.17-13.37-40.76c-16.67-11.25-18.82,7.09-18.82,7.09l13.32,40.6,12.75,40.83c16.5,11.53,18.91-6.77,18.91-6.77Zm-31.67.94-9.36-41.85c-15.52-12.8-19.44,5.24-19.44,5.24l9.34,41.68,8.77,41.88c15.3,13.08,19.48-4.92,19.48-4.92Z" transform="translate(-367.45 -18.81)"/><path class="cls-3" d="M693.31,380.46l-18.82-38.41-19.33-38.11s-.65-18.46,17.52-9.89l19.41,38.27L711,370.88S711.38,389.34,693.31,380.46Z" transform="translate(-367.45 -18.81)"/><path class="cls-3" d="M732.34,551.29l-22.55-36.37-23-36s-2.5-18.29,16.45-11.58l23.12,36.15L749,540S751.21,558.32,732.34,551.29Z" transform="translate(-367.45 -18.81)"/><path class="cls-3" d="M705.54,546.81s-2.41,18.3-18.91,6.77l-12.75-40.83-13.32-40.6s2.15-18.34,18.82-7.09l13.37,40.76Z" transform="translate(-367.45 -18.81)"/><path class="cls-3" d="M669.87,548.79s-4.18,18-19.48,4.92l-8.77-41.88-9.34-41.68s3.92-18,19.44-5.24l9.36,41.85Z" transform="translate(-367.45 -18.81)"/><path class="cls-3" d="M670.37,377.41s-3.94,18-19.41,5.18l-9.32-41.76-9.88-41.57s3.68-18.09,19.35-5.49l9.9,41.72Z" transform="translate(-367.45 -18.81)"/><path class="cls-1" d="M557.55,965.67a5.57,5.57,0,0,1-2.58-.56,5.42,5.42,0,0,1-1.84-1.46,6.41,6.41,0,0,1-1.12-2.08,7.82,7.82,0,0,1-.38-2.37,10.81,10.81,0,0,1,.56-2.89c.37-1.23.84-2.61,1.43-4.14s1.21-3.13,1.91-4.8,1.37-3.27,2-4.8,1.2-3,1.67-4.25.79-2.32,1-3.06.42-1.83.7-3,.59-2.43.94-3.8.69-2.8,1-4.31.71-3,1.08-4.56c-.65.14-1.45.27-2.4.38s-2,.22-3,.32a44.67,44.67,0,0,0-4.52.62c-1.49.28-3,.59-4.56.94L544.6,923c-1.67.4-3.45.8-5.36,1.22-2.78.6-5.56,1.28-8.35,2a33.68,33.68,0,0,1-8.7,1.11,4.76,4.76,0,0,1-2.57-.73,9,9,0,0,0-2.65-1.07,52.19,52.19,0,0,0-2.64,4.76c-.84,1.7-1.6,3.44-2.3,5.22s-1.32,3.55-1.88,5.29-1,3.38-1.46,4.91a22.67,22.67,0,0,0-.59,3.23c-.16,1.33-.31,2.67-.45,4s-.28,2.68-.42,3.93-.28,2.25-.42,3A6.33,6.33,0,0,1,506,962a8.66,8.66,0,0,1-1.54,1.84,7.83,7.83,0,0,1-2,1.36,5.22,5.22,0,0,1-2.23.52,4.41,4.41,0,0,1-3.17-1.15,8.39,8.39,0,0,1-1.95-2.85,14.53,14.53,0,0,1-1-3.72,26.61,26.61,0,0,1-.28-3.69,39.22,39.22,0,0,1,1-8.81,72.07,72.07,0,0,1,2.82-9.25,94.73,94.73,0,0,1,4.18-9.47q2.4-4.76,5.18-9.5,2.3-4.25,5.71-9.81T520.35,896q4.2-5.88,9.12-11.52a89.2,89.2,0,0,1,10.19-10.05,53.71,53.71,0,0,1,10.86-7.14,25.06,25.06,0,0,1,11.06-2.71,20,20,0,0,1,9.64,2.09,16.56,16.56,0,0,1,6.16,5.63,23.64,23.64,0,0,1,3.24,8.29,51,51,0,0,1,.94,10,81.58,81.58,0,0,1-.59,9.6c-.4,3.3-.88,6.52-1.47,9.67s-1.2,6.2-1.87,9.12-1.29,5.57-1.85,7.94l-2.43,9.46c-.1.28-.27.84-.53,1.67s-.58,1.85-1,3-.84,2.46-1.32,3.83-1,2.71-1.46,4-1,2.54-1.4,3.66-.82,2-1.14,2.71l.06-.07c-.32,1.21-.67,2.44-1,3.69A12.87,12.87,0,0,1,564,962.3a7.77,7.77,0,0,1-2.51,2.43A7.44,7.44,0,0,1,557.55,965.67Zm3.55-87.13a16.23,16.23,0,0,0-6.23,1.28,32.28,32.28,0,0,0-6.09,3.38,44.65,44.65,0,0,0-5.81,4.87q-2.82,2.79-5.36,5.71c-1.7,2-3.28,3.91-4.77,5.88s-2.83,3.79-4,5.46c-.18.28-.43.64-.73,1.08s-.6.93-.9,1.46-.59,1.09-.87,1.67-.51,1.11-.7,1.57h7.17a82,82,0,0,0,8.91-.56q5-.55,9.92-1.32t9-1.57l6.19-1.21a19.24,19.24,0,0,0,.53-2.44c.16-1,.31-2.16.45-3.41s.24-2.59.31-4,.11-2.87.11-4.35c0-1.21-.05-2.59-.14-4.14a17.14,17.14,0,0,0-.84-4.42A8.82,8.82,0,0,0,565.1,880,5.42,5.42,0,0,0,561.1,878.54Z" transform="translate(-367.45 -18.81)"/><path class="cls-1" d="M614.83,869.49a27.84,27.84,0,0,1,1.11-5.15,11.77,11.77,0,0,1,2-3.93,4.08,4.08,0,0,1,3.31-1.57,8.46,8.46,0,0,1,2.47.42,11.61,11.61,0,0,1,2.57,1.15,7.54,7.54,0,0,1,2.06,1.77,3.63,3.63,0,0,1,.83,2.3,4.66,4.66,0,0,1-.21,1.28c-.14.49-.25,1-.34,1.43l-17.4,69.74q-1,4.17-1.74,8c-.47,2.53-.82,4.6-1,6.23v1.67a39.7,39.7,0,0,1-.28,4.55,20,20,0,0,1-1,4.6,10,10,0,0,1-2.12,3.55,4.66,4.66,0,0,1-3.52,1.43,6.4,6.4,0,0,1-3.27-.81,7.06,7.06,0,0,1-2.29-2,8.62,8.62,0,0,1-1.33-2.68,9.48,9.48,0,0,1-.42-2.68,22.26,22.26,0,0,1,.21-2.75c.14-1.09.32-2.23.53-3.41s.42-2.36.66-3.55.46-2.21.69-3.09l18-71.27C614.41,873.06,614.59,871.35,614.83,869.49Z" transform="translate(-367.45 -18.81)"/><path class="cls-1" d="M629.37,952.17c.7-2.69,1.53-5.82,2.51-9.4s2-7.35,3.09-11.34,2.2-8.07,3.31-12.25,2.16-8.23,3.13-12.18a4.23,4.23,0,0,1,.49-.94,6.1,6.1,0,0,1,1.18-1.32,7.23,7.23,0,0,1,1.95-1.15,7.38,7.38,0,0,1,2.78-.49,10.88,10.88,0,0,1,2.3.25,6.94,6.94,0,0,1,2,.73,3.86,3.86,0,0,1,1.4,1.29,3.33,3.33,0,0,1,.52,1.84v.45a1.25,1.25,0,0,1-.07.45l-2,7.38q-3.27,12.39-6.65,24.85t-6.57,25q-.15.42-.42,1a6,6,0,0,1-.77,1.25,4.06,4.06,0,0,1-1.18,1,3.16,3.16,0,0,1-1.67.42,6.74,6.74,0,0,1-3.2-.73,8.2,8.2,0,0,1-2.37-1.84,7.77,7.77,0,0,1-1.46-2.44,7.33,7.33,0,0,1-.49-2.5v-.63a1.81,1.81,0,0,1,.14-.63Zm18.17-72a21.06,21.06,0,0,1,1.25-3.55,9.27,9.27,0,0,1,3.2-3.76,15.21,15.21,0,0,1,2.71-1.15,8.59,8.59,0,0,1,2.3-.52,2.56,2.56,0,0,1,1.43.49,8.49,8.49,0,0,1,1.29,1,14.25,14.25,0,0,1,1.32,1.53,2.49,2.49,0,0,1,2.26,1.25,6.2,6.2,0,0,1,.52,2.65,9,9,0,0,1-.21,2c-.14.6-.25,1.09-.35,1.46a6.24,6.24,0,0,1-1.6,2.68,12.16,12.16,0,0,1-2.71,2.09,14.7,14.7,0,0,1-3.2,1.35,10.51,10.51,0,0,1-2.92.49,4.62,4.62,0,0,1-2.48-.56,9.73,9.73,0,0,1-2.19-2.36,4.51,4.51,0,0,1-.87-1.64,5.81,5.81,0,0,1-.1-1,8,8,0,0,1,.1-1.36C647.36,880.89,647.44,880.51,647.54,880.14Z" transform="translate(-367.45 -18.81)"/><path class="cls-1" d="M678.65,971.31a7,7,0,0,1-3.1-.66,6.8,6.8,0,0,1-2.3-1.81,9,9,0,0,1-1.46-2.61,9.22,9.22,0,0,1-.52-3.13,13.36,13.36,0,0,1,.28-2.61c.18-1,.46-2.1.83-3.45l.63-2.71c.28-1.21.55-2.58.83-4.11s.57-3.15.87-4.87.58-3.39.84-5,.45-3.13.59-4.52.21-2.56.21-3.48a6.84,6.84,0,0,0-.07-1.19c-.09-.7-.59-1.17-1.5-1.42l-2.92-.84a8.3,8.3,0,0,1-2.85-1.46,4,4,0,0,1-1.29-3.31,7.6,7.6,0,0,1,.87-3.55,5.19,5.19,0,0,1,2.26-2.36,9,9,0,0,1,3.59-.84,25.94,25.94,0,0,0,3.93-.42,1.85,1.85,0,0,0,1.56-1.32,19,19,0,0,0,.73-2.3q.84-3.2,1.81-6.92t2.27-7.59q1.28-3.86,2.85-7.55a49,49,0,0,1,3.51-6.82,77,77,0,0,1,6.72-7.93,48.19,48.19,0,0,1,7.66-6.44,36.89,36.89,0,0,1,8.63-4.32,29.7,29.7,0,0,1,9.7-1.56,21.37,21.37,0,0,1,10.1,2.09,16.19,16.19,0,0,1,6.33,6.26,6.52,6.52,0,0,1,.76,2,10.14,10.14,0,0,1,.21,2.06,11.42,11.42,0,0,1-.52,3.51,9.58,9.58,0,0,1-1.43,2.86,6.85,6.85,0,0,1-2.12,1.91,5.09,5.09,0,0,1-2.54.7,4.85,4.85,0,0,1-2.92-.77,6.27,6.27,0,0,1-1.71-1.88,10.13,10.13,0,0,1-1-2.47,22.94,22.94,0,0,0-.84-2.47,5.59,5.59,0,0,0-1.21-1.88,2.92,2.92,0,0,0-2.16-.76,16.82,16.82,0,0,0-3.17.34,12.52,12.52,0,0,0-3.37,1.19,55.6,55.6,0,0,0-7.87,5,33.55,33.55,0,0,0-6.71,7,52.07,52.07,0,0,0-5.71,10.37,101.54,101.54,0,0,0-4.84,15.1c0,.09-.09.21-.14.35a1.75,1.75,0,0,0-.07.27c0,.1.19.14.56.14a32.09,32.09,0,0,0,4-.24c1.28-.16,2.54-.35,3.79-.56s2.52-.39,3.8-.55a32.58,32.58,0,0,1,4.07-.25c1.07,0,2.06,0,3,.14a7.67,7.67,0,0,1,2.4.6,3.5,3.5,0,0,1,2.2,3.51,11,11,0,0,1-.25,2,11.28,11.28,0,0,1-.76,2.37,8,8,0,0,1-1.33,2.05,3.3,3.3,0,0,1-2,1.11c-1.39.28-2.83.5-4.31.67s-3.11.34-4.88.55-3.71.51-5.84.91-4.53,1-7.17,1.7a81,81,0,0,0-1.91,9.36c-.45,3.09-.83,6.16-1.15,9.23s-.69,6.13-1.08,9.22a90.47,90.47,0,0,1-1.71,9.29,6.55,6.55,0,0,1-.73,1.81,7.67,7.67,0,0,1-1.25,1.63,6.19,6.19,0,0,1-1.67,1.19A4.55,4.55,0,0,1,678.65,971.31Z" transform="translate(-367.45 -18.81)"/><path class="cls-1" d="M789.51,962.82a11,11,0,0,1,.25-2.05c.16-.86.36-1.74.59-2.65s.47-1.78.73-2.61.45-1.51.59-2L819.86,861a4.76,4.76,0,0,1,.76-.84,3,3,0,0,1,.94-.59,3.82,3.82,0,0,1,1.43-.24h1.18a5.73,5.73,0,0,1,2.58.52,4.57,4.57,0,0,1,1.67,1.39,5.19,5.19,0,0,1,.87,2,12.11,12.11,0,0,1,.24,2.47,17.4,17.4,0,0,1-.17,2.33c-.12.81-.24,1.6-.38,2.37s-.3,1.47-.46,2.12l-.38,1.53L813.66,923.5l6.62-.63q11.06-2.43,22.58-5t22.58-5a5.45,5.45,0,0,0,2.23-2.58,31.81,31.81,0,0,0,1.91-5.08c.63-2.09,1.32-4.53,2.06-7.34s1.65-5.93,2.71-9.36l1.46-4.8c.61-2.32,1.15-4.7,1.64-7.14a51.32,51.32,0,0,1,1.77-6.64,15.61,15.61,0,0,1,2.65-4.91A5.09,5.09,0,0,1,886,863a6.85,6.85,0,0,1,5.49,2.26,8.38,8.38,0,0,1,1.95,5.67,27.68,27.68,0,0,1-1.63,7.24q-1.63,5.09-4.07,12.39-.91,2.71-2,5.56t-1.92,5.47q-.87,2.61-1.42,4.8a14.63,14.63,0,0,0-.56,3.51,8.62,8.62,0,0,0,.35,2.47,9.62,9.62,0,0,1,.35,2.61,8.05,8.05,0,0,1-1.68,5.22,24.05,24.05,0,0,1-4.59,4.25c-.09.37-.22.95-.38,1.74s-.36,1.6-.59,2.44l-.91,3.55q-1,3.82-1.63,7.65t-1.19,7.59c-.34,2.5-.72,5-1.11,7.51s-.89,5-1.5,7.45a6.28,6.28,0,0,1-1.21,2.47,9.58,9.58,0,0,1-2,1.85,10.28,10.28,0,0,1-2.4,1.18,7.51,7.51,0,0,1-2.37.42,4.46,4.46,0,0,1-2.71-.77,5.63,5.63,0,0,1-1.64-1.81,7.07,7.07,0,0,1-.8-2.16,10.33,10.33,0,0,1-.21-1.87,25,25,0,0,1,.24-2.75c.17-1.28.39-2.78.67-4.49s.6-3.57,1-5.57.74-4,1.11-6.06q1.32-7.1,3.07-15.52h-.49a21.28,21.28,0,0,0-3.9.39q-2.09.38-5,1.08c-.88.27-2.19.65-3.93,1.11l-6,1.6-7.21,2-7.69,2.09-18.86,5.15a62.3,62.3,0,0,0-2.47,5.88q-1.14,3.16-2.12,6.4t-1.78,6.37q-.79,3.13-1.49,5.91a5.41,5.41,0,0,1-.87,1.68,10.39,10.39,0,0,1-1.53,1.66,9.53,9.53,0,0,1-1.81,1.26,3.94,3.94,0,0,1-1.78.48,4.55,4.55,0,0,1-2.54-.66,5.14,5.14,0,0,1-1.63-1.74,7.32,7.32,0,0,1-.87-2.43A14.54,14.54,0,0,1,789.51,962.82Z" transform="translate(-367.45 -18.81)"/><path class="cls-1" d="M896.14,938.25a50.34,50.34,0,0,1,3.23-9,56.39,56.39,0,0,1,5.75-9.64,67.47,67.47,0,0,1,8.52-9.54,72.93,72.93,0,0,1,11.52-8.7,17.64,17.64,0,0,1,3.2-1.35,16.79,16.79,0,0,1,4.46-.87,9.46,9.46,0,0,1,7.3-2.93,15,15,0,0,1,9.15,2.75,21,21,0,0,1,6.16,7.49c.51,1,1,2,1.43,3a20.6,20.6,0,0,1,1.11,3.1,30.5,30.5,0,0,1,.74,3.51,30.08,30.08,0,0,1,.27,4.25,38.27,38.27,0,0,1-1.74,11.2,51.05,51.05,0,0,1-4.94,11.14,62.32,62.32,0,0,1-7.76,10.4A63.94,63.94,0,0,1,934.42,962a30,30,0,0,1-8.32,4.21,32.53,32.53,0,0,1-10.2,1.5,27.28,27.28,0,0,1-9.29-1.43,17.24,17.24,0,0,1-6.54-4.07,16.71,16.71,0,0,1-3.9-6.33,24.77,24.77,0,0,1-1.29-8.21A38.62,38.62,0,0,1,896.14,938.25Zm11.55.91a21.66,21.66,0,0,0-.59,3,22.12,22.12,0,0,0-.18,2.75,14.71,14.71,0,0,0,.6,4.28,8.48,8.48,0,0,0,1.91,3.41,9,9,0,0,0,3.31,2.23,13,13,0,0,0,4.83.8,19.06,19.06,0,0,0,9.85-2.68,33,33,0,0,0,8.11-6.72,43.3,43.3,0,0,0,6-8.66,39.82,39.82,0,0,0,3.37-8.53q.63-2.43,1.08-4.59a18.92,18.92,0,0,0,.46-4,8.58,8.58,0,0,0-.66-3.37c-.45-1-1-2.22-1.71-3.52-.42-.79-.84-1.61-1.25-2.47s-.79-1.7-1.12-2.54a10.91,10.91,0,0,1-1.18,1.71,5.59,5.59,0,0,1-1.88,1.32,17.47,17.47,0,0,1-3.41,1.08,49.29,49.29,0,0,1-5.64.83,19.18,19.18,0,0,0-4.66,2.37,35.83,35.83,0,0,0-4.63,3.76,51.91,51.91,0,0,0-4.31,4.66,49.57,49.57,0,0,0-3.69,5.12,56.75,56.75,0,0,0-2.86,5.11A21.88,21.88,0,0,0,907.69,939.16Z" transform="translate(-367.45 -18.81)"/><path class="cls-1" d="M982.92,903a6.54,6.54,0,0,1,.8-1.91,5.78,5.78,0,0,1,1.12-1.29,4.57,4.57,0,0,1,1.08-.69,2.08,2.08,0,0,1,.76-.21,11.83,11.83,0,0,1,1.81.17l2,.32c.74.13,1.46.28,2.16.41a2.94,2.94,0,0,1,2.61,1.47,6.59,6.59,0,0,1,.8,3.33,9.37,9.37,0,0,1-.42,2.86q-2.37,8.7-4.31,15.14t-3.31,11Q986.69,938,986,940.9a18.93,18.93,0,0,0-.73,4.31,16.19,16.19,0,0,0,.38,3.27,14.79,14.79,0,0,0,1.15,3.38,8.35,8.35,0,0,0,2,2.61,4.19,4.19,0,0,0,2.85,1,11.34,11.34,0,0,0,5.92-1.81,32.08,32.08,0,0,0,5.71-4.42,43.62,43.62,0,0,0,4.9-5.57q2.19-3,3.59-5.25l1.81-3.13a47,47,0,0,0,3.09-6.72c1-2.53,1.79-5.07,2.51-7.62s1.33-5,1.84-7.2.91-4,1.19-5.4l1.81-9.25a6.68,6.68,0,0,1,1.7-3.66,5.87,5.87,0,0,1,3.87-1,11.66,11.66,0,0,1,3.13.39,5.3,5.3,0,0,1,2.36,1.35,6,6,0,0,1,1.46,2.61,14.91,14.91,0,0,1,.49,4.21,35.58,35.58,0,0,1-.94,7.35c-.62,2.9-1.31,5.81-2,8.73q-.63,2.58-1.29,5.47c-.44,1.92-.83,3.85-1.18,5.77s-.63,3.76-.84,5.5a39.55,39.55,0,0,0-.31,4.7q0,3.54.24,7.1c.16,2.36.25,4.87.25,7.51,0,1.21,0,2.28-.11,3.2a10.51,10.51,0,0,1-.31,2.09,9.94,9.94,0,0,1-2,4c-.82.88-2.2,1.32-4.15,1.32a9.26,9.26,0,0,1-3.2-.45,4.46,4.46,0,0,1-1.84-1.22,3.89,3.89,0,0,1-.87-1.7,13.67,13.67,0,0,1-.28-1.92l-.77-13.15-.62.21c-1.53,1.94-3.2,4.13-5,6.54a55.59,55.59,0,0,1-6,6.75,33.7,33.7,0,0,1-7.13,5.25,17.1,17.1,0,0,1-8.39,2.13,7.87,7.87,0,0,1-2.33-.46,27,27,0,0,1-3-1.14,26.29,26.29,0,0,1-2.92-1.57,14.86,14.86,0,0,1-2.23-1.64,20.17,20.17,0,0,1-5.43-8,26.73,26.73,0,0,1-1.6-9.05,32,32,0,0,1,.42-5.15c.28-1.71.6-3.37,1-5s.77-3.11,1.21-4.53.8-2.68,1.08-3.79q1.32-5.22,2.37-9.19l1.84-7c.54-2,1-3.7,1.36-5.11S982.65,904,982.92,903Z" transform="translate(-367.45 -18.81)"/><path class="cls-1" d="M1051.48,952.59a3.25,3.25,0,0,1,1,.14l1,.31a11.07,11.07,0,0,0,1.26.31,9,9,0,0,0,1.81.14,43.13,43.13,0,0,0,7.27-.69,60.46,60.46,0,0,0,7.55-1.81,32.47,32.47,0,0,0,6.09-2.54c1.7-1,2.66-1.94,2.89-3a6.16,6.16,0,0,0,.21-1.46,3.12,3.12,0,0,0-1.15-2.27,14.92,14.92,0,0,0-2.89-2,35.51,35.51,0,0,0-3.76-1.81l-3.76-1.53-2.36-1a24.58,24.58,0,0,1-3.55-1.71,20.17,20.17,0,0,1-3.24-2.33,14.76,14.76,0,0,1-2.64-3.1,13,13,0,0,1-1.71-4.07q-.27-1-.45-2a11.49,11.49,0,0,1-.17-2.09,9.21,9.21,0,0,1,1.21-4.14,23.31,23.31,0,0,1,3.28-4.62A37,37,0,0,1,1064,907a29.57,29.57,0,0,1,5.46-3.48c1.4-1,2.74-1.85,4-2.64a29.27,29.27,0,0,1,3.93-2,24.76,24.76,0,0,1,4-1.32,18.53,18.53,0,0,1,4.35-.49c1.39,0,2.9.07,4.52.21a16.55,16.55,0,0,1,4.46,1,8.64,8.64,0,0,1,3.37,2.26,5.73,5.73,0,0,1,1.36,4,12.67,12.67,0,0,1-.21,2,12.4,12.4,0,0,1-.7,2.51,8.69,8.69,0,0,1-1.18,2.16,2.05,2.05,0,0,1-1.67.9,5.11,5.11,0,0,1-2.64-.62,12.43,12.43,0,0,1-1.88-1.36,20.39,20.39,0,0,0-1.74-1.36,3.83,3.83,0,0,0-2.23-.63,14,14,0,0,0-3.73.6,29.93,29.93,0,0,0-4.34,1.6,36.46,36.46,0,0,0-4.35,2.33,35.22,35.22,0,0,0-3.83,2.71,17,17,0,0,0-2.75,2.75,4.19,4.19,0,0,0-1,2.47,2.64,2.64,0,0,0,.76,1.95,6.81,6.81,0,0,0,2,1.32,38.89,38.89,0,0,0,3.51,1.68l4,1.66,3.93,1.67c1.27.56,2.38,1.07,3.3,1.54,1.26.65,2.38,1.28,3.38,1.91a13,13,0,0,1,2.54,2.05,8,8,0,0,1,1.6,2.51,8.81,8.81,0,0,1,.56,3.27,12.26,12.26,0,0,1-.14,1.81c-.09.6-.23,1.3-.42,2.09a16.15,16.15,0,0,1-.73,2.43c-.35.93-.72,1.85-1.11,2.75a24.09,24.09,0,0,1-1.22,2.44,5.61,5.61,0,0,1-1,1.42,37.58,37.58,0,0,1-6.4,4.7,58,58,0,0,1-7.69,3.83,56.5,56.5,0,0,1-8,2.61,31.24,31.24,0,0,1-7.35,1,11.9,11.9,0,0,1-3.68-.66,16.55,16.55,0,0,1-3.73-1.74,12.08,12.08,0,0,1-2.85-2.47,4.35,4.35,0,0,1-1.15-2.78,3.69,3.69,0,0,1,.42-1.57,7.32,7.32,0,0,1,1-1.6,8,8,0,0,1,1.36-1.25A2.38,2.38,0,0,1,1051.48,952.59Z" transform="translate(-367.45 -18.81)"/><path class="cls-1" d="M1107.78,938a8.09,8.09,0,0,1,1.6-5.08,7.62,7.62,0,0,1,4.25-2.78q.76-1.53,2.36-4.14a66.39,66.39,0,0,1,4-5.68,70.34,70.34,0,0,1,5.4-6.15,45,45,0,0,1,6.68-5.64,35.53,35.53,0,0,1,7.86-4.14,24.9,24.9,0,0,1,8.94-1.6,22.7,22.7,0,0,1,7,1,13.77,13.77,0,0,1,4.94,2.71,11,11,0,0,1,2.93,4.15,13.6,13.6,0,0,1,1,5.18,16.34,16.34,0,0,1-.62,4.52,15.65,15.65,0,0,1-3.62,6.82,28.21,28.21,0,0,1-6.23,5.12,39.86,39.86,0,0,1-7.8,3.65,80.87,80.87,0,0,1-8.42,2.44q-4.21,1-8.11,1.5t-6.75.8a15,15,0,0,0-1.08,3.16,16.3,16.3,0,0,0-.45,3.73,7.19,7.19,0,0,0,3.2,6.26c2.14,1.49,5.08,2.23,8.84,2.23a26.78,26.78,0,0,0,6.27-.73,37.31,37.31,0,0,0,5.67-1.88,48.29,48.29,0,0,0,5-2.51c1.58-.9,3-1.8,4.32-2.68a48.4,48.4,0,0,1,4.77-2.82,9.08,9.08,0,0,1,4-1.14q1.74,0,2.22.87a3.65,3.65,0,0,1,.49,1.84q0,.56,0,1.08a7.28,7.28,0,0,1-.11.87,12,12,0,0,1-4,6.75,47.41,47.41,0,0,1-14.86,8.14,52.89,52.89,0,0,1-16.25,2.44c-1.12,0-2.43-.07-3.94-.21a29.77,29.77,0,0,1-4.69-.84,23.65,23.65,0,0,1-4.81-1.81,14.91,14.91,0,0,1-4.21-3.13,15.18,15.18,0,0,1-3-4.8,18.56,18.56,0,0,1-1.15-6.89,33.34,33.34,0,0,1,.91-7.31,3,3,0,0,1-1.71-.94A3.16,3.16,0,0,1,1107.78,938Zm43.57-19.28a1.76,1.76,0,0,0,.14-.62v-.63a3.18,3.18,0,0,0-1.39-2.82,5.9,5.9,0,0,0-3.34-.94,12.57,12.57,0,0,0-6,1.6,27.63,27.63,0,0,0-5.57,4,35.57,35.57,0,0,0-4.63,5.15,34.73,34.73,0,0,0-3.13,5,67.39,67.39,0,0,0,9.19-1.36,36.52,36.52,0,0,0,7.27-2.36,19.22,19.22,0,0,0,5-3.2A8.26,8.26,0,0,0,1151.35,918.76Z" transform="translate(-367.45 -18.81)"/></svg>